<?xml version="1.0" standalone="no"?>
<!DOCTYPE svg PUBLIC "-//W3C//DTD SVG 20010904//EN"
 "http://www.w3.org/TR/2001/REC-SVG-20010904/DTD/svg10.dtd">
<svg version="1.0" xmlns="http://www.w3.org/2000/svg"
 width="96.000000pt" height="81.000000pt" viewBox="0 0 96.000000 81.000000"
 preserveAspectRatio="xMidYMid meet">

<g transform="translate(0.000000,81.000000) scale(0.100000,-0.100000)"
fill="#000000" stroke="none">
<path d="M315 799 c-6 -8 8 -28 43 -60 45 -41 52 -53 52 -85 0 -39 -56 -263
-70 -277 -4 -5 -38 1 -76 13 -72 23 -264 40 -263 24 0 -5 22 -25 48 -46 37
-27 62 -38 105 -43 31 -4 59 -11 62 -16 3 -5 13 -9 23 -9 10 0 24 -7 31 -15
10 -12 2 -34 -44 -120 -31 -58 -56 -112 -56 -119 0 -20 34 -46 61 -46 17 0 33
13 57 48 48 70 108 132 125 132 9 0 44 -27 79 -60 39 -38 80 -67 109 -77 30
-11 45 -22 42 -30 -3 -7 -1 -13 5 -13 5 0 12 9 15 20 3 11 17 22 33 25 46 10
106 38 137 64 64 54 96 188 64 269 -9 22 -14 42 -11 44 2 3 -5 13 -16 23 -28
26 -26 55 4 55 20 0 27 10 46 59 12 33 19 64 16 69 -8 13 -70 5 -125 -15 -42
-15 -45 -15 -58 2 -17 24 -17 62 2 115 8 24 13 45 10 48 -6 6 -44 -19 -90 -59
-38 -33 -41 -50 -24 -110 10 -31 9 -42 -3 -62 -19 -28 -181 -167 -196 -167 -6
0 1 23 14 51 48 98 84 229 84 302 0 39 -215 100 -235 66z m470 -430 c23 -137
-140 -231 -245 -142 -52 43 -45 52 134 180 l60 43 22 -21 c13 -12 26 -39 29
-60z"/>
</g>
</svg>
